<mxfile host="app.diagrams.net" modified="2023-04-30T23:17:50.445Z" agent="Mozilla/5.0 (Windows NT 10.0; Win64; x64) AppleWebKit/537.36 (KHTML, like Gecko) Chrome/112.0.0.0 Safari/537.36" etag="WnUKhJvWMOf2MIREDzjv" version="21.2.2" type="device">
  <diagram name="Страница 1" id="mTyQx_3ciLLUEkvNwyVf">
    <mxGraphModel dx="2514" dy="889" grid="1" gridSize="10" guides="1" tooltips="1" connect="1" arrows="1" fold="1" page="1" pageScale="1" pageWidth="827" pageHeight="1169" math="0" shadow="0">
      <root>
        <mxCell id="0" />
        <mxCell id="1" parent="0" />
        <mxCell id="ugCTVWBi74FN6kob_7Xc-27" value="" style="rounded=0;whiteSpace=wrap;html=1;fillColor=#eeeeee;strokeColor=#36393d;" vertex="1" parent="1">
          <mxGeometry x="350" width="600" height="670" as="geometry" />
        </mxCell>
        <mxCell id="ugCTVWBi74FN6kob_7Xc-15" value="" style="rounded=0;whiteSpace=wrap;html=1;fillColor=#fff2cc;strokeColor=#d6b656;" vertex="1" parent="1">
          <mxGeometry x="430" y="410" width="470" height="230" as="geometry" />
        </mxCell>
        <mxCell id="ugCTVWBi74FN6kob_7Xc-14" value="" style="rounded=0;whiteSpace=wrap;html=1;fillColor=#dae8fc;strokeColor=#6c8ebf;" vertex="1" parent="1">
          <mxGeometry x="430" y="60" width="470" height="230" as="geometry" />
        </mxCell>
        <mxCell id="ugCTVWBi74FN6kob_7Xc-7" style="edgeStyle=orthogonalEdgeStyle;rounded=0;orthogonalLoop=1;jettySize=auto;html=1;" edge="1" parent="1" source="ugCTVWBi74FN6kob_7Xc-2" target="ugCTVWBi74FN6kob_7Xc-3">
          <mxGeometry relative="1" as="geometry" />
        </mxCell>
        <mxCell id="ugCTVWBi74FN6kob_7Xc-8" style="edgeStyle=orthogonalEdgeStyle;rounded=0;orthogonalLoop=1;jettySize=auto;html=1;" edge="1" parent="1" source="ugCTVWBi74FN6kob_7Xc-2" target="ugCTVWBi74FN6kob_7Xc-4">
          <mxGeometry relative="1" as="geometry" />
        </mxCell>
        <mxCell id="ugCTVWBi74FN6kob_7Xc-2" value="&lt;b style=&quot;font-size: 16px;&quot;&gt;API&lt;br&gt;GATEWAY&lt;/b&gt;" style="rounded=0;whiteSpace=wrap;html=1;fillColor=#d5e8d4;strokeColor=#82b366;" vertex="1" parent="1">
          <mxGeometry x="190" y="145" width="120" height="430" as="geometry" />
        </mxCell>
        <mxCell id="ugCTVWBi74FN6kob_7Xc-12" style="edgeStyle=orthogonalEdgeStyle;rounded=0;orthogonalLoop=1;jettySize=auto;html=1;" edge="1" parent="1" source="ugCTVWBi74FN6kob_7Xc-3" target="ugCTVWBi74FN6kob_7Xc-13">
          <mxGeometry relative="1" as="geometry">
            <mxPoint x="740" y="195" as="targetPoint" />
          </mxGeometry>
        </mxCell>
        <mxCell id="ugCTVWBi74FN6kob_7Xc-3" value="&lt;b&gt;&lt;font style=&quot;font-size: 16px;&quot;&gt;Сервис документов&lt;/font&gt;&lt;/b&gt;" style="rounded=0;whiteSpace=wrap;html=1;fillColor=#dae8fc;strokeColor=#6c8ebf;gradientColor=#7ea6e0;" vertex="1" parent="1">
          <mxGeometry x="480" y="140" width="170" height="110" as="geometry" />
        </mxCell>
        <mxCell id="ugCTVWBi74FN6kob_7Xc-11" style="edgeStyle=orthogonalEdgeStyle;rounded=0;orthogonalLoop=1;jettySize=auto;html=1;" edge="1" parent="1" source="ugCTVWBi74FN6kob_7Xc-4" target="ugCTVWBi74FN6kob_7Xc-10">
          <mxGeometry relative="1" as="geometry" />
        </mxCell>
        <mxCell id="ugCTVWBi74FN6kob_7Xc-4" value="&lt;b&gt;&lt;font style=&quot;font-size: 16px;&quot;&gt;Сервис мессенджера&lt;/font&gt;&lt;/b&gt;" style="rounded=0;whiteSpace=wrap;html=1;fillColor=#fff2cc;strokeColor=#d6b656;gradientColor=#ffd966;" vertex="1" parent="1">
          <mxGeometry x="480" y="475" width="170" height="110" as="geometry" />
        </mxCell>
        <mxCell id="ugCTVWBi74FN6kob_7Xc-10" value="&lt;b style=&quot;font-size: 16px;&quot;&gt;&lt;br&gt;PostgreSQL&lt;br&gt;Database&lt;br&gt;&lt;/b&gt;" style="strokeWidth=2;html=1;shape=mxgraph.flowchart.database;whiteSpace=wrap;fillColor=#fff2cc;strokeColor=#d6b656;gradientColor=#ffd966;" vertex="1" parent="1">
          <mxGeometry x="730" y="480" width="120" height="100" as="geometry" />
        </mxCell>
        <mxCell id="ugCTVWBi74FN6kob_7Xc-13" value="&lt;b&gt;&lt;font style=&quot;font-size: 16px;&quot;&gt;Storage&lt;/font&gt;&lt;/b&gt;" style="strokeWidth=2;html=1;shape=mxgraph.flowchart.database;whiteSpace=wrap;fillColor=#dae8fc;strokeColor=#6c8ebf;gradientColor=#7ea6e0;" vertex="1" parent="1">
          <mxGeometry x="730" y="145" width="120" height="100" as="geometry" />
        </mxCell>
        <mxCell id="ugCTVWBi74FN6kob_7Xc-21" style="edgeStyle=orthogonalEdgeStyle;rounded=0;orthogonalLoop=1;jettySize=auto;html=1;entryX=0;entryY=0.25;entryDx=0;entryDy=0;" edge="1" parent="1" source="ugCTVWBi74FN6kob_7Xc-25" target="ugCTVWBi74FN6kob_7Xc-2">
          <mxGeometry relative="1" as="geometry">
            <mxPoint x="83.91000000000008" y="252.5" as="sourcePoint" />
          </mxGeometry>
        </mxCell>
        <mxCell id="ugCTVWBi74FN6kob_7Xc-20" style="edgeStyle=orthogonalEdgeStyle;rounded=0;orthogonalLoop=1;jettySize=auto;html=1;entryX=0;entryY=0.75;entryDx=0;entryDy=0;" edge="1" parent="1" source="ugCTVWBi74FN6kob_7Xc-24" target="ugCTVWBi74FN6kob_7Xc-2">
          <mxGeometry relative="1" as="geometry">
            <mxPoint x="77.82999999999993" y="468.0999999999999" as="sourcePoint" />
          </mxGeometry>
        </mxCell>
        <mxCell id="ugCTVWBi74FN6kob_7Xc-24" value="" style="sketch=0;outlineConnect=0;fontColor=#232F3E;gradientColor=none;strokeColor=#232F3E;fillColor=none;dashed=0;verticalLabelPosition=bottom;verticalAlign=top;align=center;html=1;fontSize=12;fontStyle=0;aspect=fixed;shape=mxgraph.aws4.resourceIcon;resIcon=mxgraph.aws4.mobile_client;" vertex="1" parent="1">
          <mxGeometry y="420" width="95" height="95" as="geometry" />
        </mxCell>
        <mxCell id="ugCTVWBi74FN6kob_7Xc-25" value="" style="shape=image;html=1;verticalAlign=top;verticalLabelPosition=bottom;labelBackgroundColor=#ffffff;imageAspect=0;aspect=fixed;image=https://cdn4.iconfinder.com/data/icons/48-bubbles/48/29.Mac-128.png" vertex="1" parent="1">
          <mxGeometry x="-14" y="188" width="128" height="128" as="geometry" />
        </mxCell>
        <mxCell id="ugCTVWBi74FN6kob_7Xc-29" value="&lt;b&gt;&lt;font style=&quot;font-size: 16px;&quot;&gt;Kubernates&lt;/font&gt;&lt;/b&gt;" style="text;html=1;strokeColor=none;fillColor=none;align=center;verticalAlign=middle;whiteSpace=wrap;rounded=0;" vertex="1" parent="1">
          <mxGeometry x="339" y="10" width="150" height="30" as="geometry" />
        </mxCell>
      </root>
    </mxGraphModel>
  </diagram>
</mxfile>
